<svg width="1600" height="900" viewBox="0 0 1600 900" fill="none" xmlns="http://www.w3.org/2000/svg">
  <rect width="1600" height="900" fill="#F4F4F5"/>
  <rect x="72" y="72" width="1456" height="756" rx="44" fill="url(#bg)"/>
  <rect x="118" y="118" width="1364" height="664" rx="34" fill="#FFFFFF" fill-opacity="0.9"/>
  <rect x="160" y="160" width="1280" height="248" rx="28" fill="#18181B"/>
  <circle cx="1260" cy="284" r="110" fill="#E11D48" fill-opacity="0.18"/>
  <circle cx="1350" cy="240" r="58" fill="#FFFFFF" fill-opacity="0.08"/>
  <circle cx="1190" cy="220" r="34" fill="#FFFFFF" fill-opacity="0.08"/>
  <text x="224" y="230" fill="#FFFFFF" font-family="Arial, sans-serif" font-size="30" font-weight="700" letter-spacing="7">GANM OLS</text>
  <text x="224" y="318" fill="#FFFFFF" font-family="Arial, sans-serif" font-size="74" font-weight="700">SUPER MARIO KART</text>
  <text x="224" y="374" fill="#D4D4D8" font-family="Arial, sans-serif" font-size="28" font-weight="400">Uma volta no classico do Super Nintendo</text>

  <rect x="160" y="458" width="402" height="270" rx="30" fill="#FFFFFF"/>
  <rect x="194" y="492" width="334" height="202" rx="24" fill="#18181B"/>
  <circle cx="252" cy="630" r="22" fill="#DC2626"/>
  <circle cx="470" cy="630" r="22" fill="#2563EB"/>
  <rect x="238" y="548" width="246" height="28" rx="14" fill="#52525B"/>
  <rect x="258" y="514" width="206" height="18" rx="9" fill="#A1A1AA"/>
  <rect x="302" y="596" width="118" height="12" rx="6" fill="#FAFAFA"/>

  <rect x="600" y="458" width="402" height="270" rx="30" fill="#FFFFFF"/>
  <rect x="634" y="492" width="334" height="202" rx="24" fill="#111827"/>
  <path d="M696 640C752 572 822 552 904 544" stroke="#FDE047" stroke-width="18" stroke-linecap="round"/>
  <path d="M696 610C746 556 826 518 916 516" stroke="#FFFFFF" stroke-width="10" stroke-linecap="round" stroke-dasharray="16 18"/>
  <circle cx="734" cy="582" r="28" fill="#DC2626"/>
  <circle cx="820" cy="560" r="28" fill="#16A34A"/>
  <circle cx="896" cy="540" r="28" fill="#2563EB"/>
  <rect x="678" y="512" width="126" height="18" rx="9" fill="#F4F4F5"/>

  <rect x="1040" y="458" width="400" height="270" rx="30" fill="#FFFFFF"/>
  <text x="1082" y="536" fill="#18181B" font-family="Arial, sans-serif" font-size="24" font-weight="700" letter-spacing="3">1992</text>
  <text x="1082" y="602" fill="#18181B" font-family="Arial, sans-serif" font-size="46" font-weight="700">Mode 7, itens,</text>
  <text x="1082" y="654" fill="#18181B" font-family="Arial, sans-serif" font-size="46" font-weight="700">batalhas e legado.</text>
  <rect x="1082" y="684" width="182" height="8" rx="4" fill="#E11D48"/>

  <defs>
    <linearGradient id="bg" x1="72" y1="72" x2="1528" y2="828" gradientUnits="userSpaceOnUse">
      <stop stop-color="#E4E4E7"/>
      <stop offset="1" stop-color="#D4D4D8"/>
    </linearGradient>
  </defs>
</svg>
