<svg xmlns="http://www.w3.org/2000/svg" width="512" height="512" viewBox="0 0 512 512">
  <path fill="#000" fill-rule="evenodd" d="
    M256 56
    C177 56 120 112 120 198
    L120 314
    C120 401 177 456 256 456
    C335 456 392 401 392 314
    L392 198
    C392 112 335 56 256 56
    Z

    M248 120
    L264 120
    L264 272
    L248 272
    Z

    M234 108
    C234 96 244 86 256 86
    C268 86 278 96 278 108
    L278 152
    C278 164 268 174 256 174
    C244 174 234 164 234 152
    Z
  "/>
</svg>