<svg xmlns="http://www.w3.org/2000/svg" width="1024" height="1024" viewBox="0 0 1024 1024">
  <path d="M 206 253 L 195 269 L 186 288 L 181 308 L 180 330 L 158 353 L 141 377 L 123 411 L 116 428 L 106 458 L 97 497 L 93 523 L 90 559 L 90 601 L 93 637 L 100 678 L 109 712 L 120 742 L 135 773 L 154 802 L 179 829 L 201 845 L 220 854 L 238 859 L 264 860 L 281 857 L 309 845 L 331 829 L 350 809 L 346 799 L 340 769 L 339 731 L 343 703 L 355 666 L 369 640 L 390 613 L 416 590 L 439 576 L 447 573 L 447 555 L 449 551 L 457 545 L 567 545 L 571 547 L 577 555 L 577 573 L 585 576 L 608 590 L 626 605 L 641 621 L 655 640 L 669 666 L 678 691 L 682 708 L 685 731 L 685 759 L 681 787 L 674 809 L 693 829 L 715 845 L 734 854 L 752 859 L 786 859 L 804 854 L 823 845 L 845 829 L 861 813 L 873 798 L 889 773 L 904 742 L 918 702 L 927 663 L 933 617 L 934 559 L 932 532 L 927 497 L 918 458 L 901 411 L 889 387 L 873 362 L 861 347 L 844 330 L 844 315 L 842 302 L 836 283 L 829 269 L 818 253 L 799 234 L 780 221 L 762 212 L 745 206 L 721 201 L 687 200 L 665 203 L 636 212 L 607 228 L 583 250 L 441 250 L 417 228 L 406 221 L 383 210 L 347 201 L 313 200 L 291 203 L 262 212 L 233 228 L 225 234 Z M 729 491 L 739 491 L 751 496 L 760 505 L 765 517 L 765 527 L 760 539 L 751 548 L 739 553 L 729 553 L 717 548 L 708 539 L 703 527 L 703 517 L 708 505 L 717 496 Z M 787 433 L 797 433 L 809 438 L 818 447 L 823 459 L 823 469 L 818 481 L 809 490 L 797 495 L 787 495 L 775 490 L 766 481 L 761 469 L 761 459 L 766 447 L 775 438 Z M 671 433 L 681 433 L 693 438 L 702 447 L 707 459 L 707 469 L 702 481 L 693 490 L 681 495 L 671 495 L 659 490 L 650 481 L 645 469 L 645 459 L 650 447 L 659 438 Z M 298 379 L 318 380 L 330 389 L 335 400 L 335 429 L 368 430 L 380 439 L 385 450 L 384 470 L 375 482 L 364 487 L 335 487 L 334 520 L 325 532 L 314 537 L 294 536 L 282 527 L 277 516 L 277 487 L 244 486 L 232 477 L 227 466 L 228 446 L 237 434 L 248 429 L 277 429 L 278 396 L 287 384 Z M 729 375 L 739 375 L 751 380 L 760 389 L 765 401 L 765 411 L 760 423 L 751 432 L 739 437 L 729 437 L 717 432 L 708 423 L 703 411 L 703 401 L 708 389 L 717 380 Z " fill="#000000" fill-rule="evenodd"/>
</svg>